<svg xmlns="http://www.w3.org/2000/svg" fill="none" viewBox="1.43 3.71 206.18 97.31"><path d="M192.606 27.729c-16.791-8.821-41.797-14.89-53.764-16.22-11.968-1.329-47.9-.914-78.683 6.51C36.019 23.841 6.4 36.042 3.774 51.44 1.814 62.93 8.16 75.429 23.661 85.8c15.502 10.372 39.328 13.822 61.718 13.136 24.473-.75 59.439-6.956 80.771-14.167 21.333-7.21 34.907-17.59 36.925-34.395 3.113-25.929-41.875-43.716-81.973-44.596-22.666-.498-50.96 1.704-71.25 9.023-15.885 5.73-33.795 17.649-36.682 27.782-4.057 14.24 2.115 23.441 8.884 30.925C28.823 80.992 46.43 89.3 63.658 92.442c17.227 3.143 43.451 6.429 75.421 2.673 9.561-1.124 16.167-3.075 30.582-8.296 14.415-5.22 31.057-16.122 35.951-20.203" stroke="#84EA00" stroke-width="4" stroke-linecap="round"/><path d="M77.51 49.627h-.049a.669.669 0 0 0-.287.048c-.225.16-.4.24-.529.24-.127 0-.32-.064-.575-.192-.224-.096-.368-.208-.432-.336-.032-.128-.017-.288.047-.48.16-.32.272-.592.337-.816.031-.096.207-.416.527-.96.192-.32.448-.8.768-1.44.129-.256.305-.56.529-.912.255-.352.447-.672.575-.96.064-.192.256-.368.576-.528.064-.032.24-.128.528-.288.288-.16.576-.256.864-.288.193-.032.433-.096.72-.192.32-.128.56-.208.72-.24.257-.096.56-.16.913-.192.383-.032.671-.064.864-.096l.192-.096c.096-.032.272-.096.528-.192s.48-.144.672-.144c.927-.064 1.44-.112 1.535-.144l.72-.24a3.68 3.68 0 0 1 .817-.24c.224-.064.448-.16.672-.288.224-.128.463-.24.72-.336.447-.128.944-.4 1.487-.816.097-.096.177-.272.24-.528a5.808 5.808 0 0 1 0-1.056v-.096c0-.128-.063-.256-.191-.384a7.679 7.679 0 0 0-.865-.624c-.352-.224-.623-.448-.816-.672-.031-.032-.191-.08-.48-.144a12.152 12.152 0 0 0-1.248-.048c-.448 0-1.12.032-2.016.096l-1.007.048a1.58 1.58 0 0 0-.48.096c-.448.256-1.105.416-1.968.48-.672.064-1.168.16-1.489.288-.16.096-.431.208-.816.336-.383.096-.672.208-.864.336a4.35 4.35 0 0 1-.767-.048 4.612 4.612 0 0 1-.337-.096 1.067 1.067 0 0 0-.335-.144h-.288c-.416 0-.72.08-.912.24a.314.314 0 0 0-.145.144.558.558 0 0 1-.096.144c-.64.512-1.312.864-2.016 1.056-.16.032-.335.096-.528.192l-.384.192c-.512.224-.832.352-.96.384a.86.86 0 0 0-.287.432 5.876 5.876 0 0 0-.097.912c0 .32.049.656.145 1.008.032.096.08.224.144.384.096.128.16.272.192.432.096.224.143.464.143.72 0 .16-.064.464-.192.912a3.161 3.161 0 0 0-.287.48 1.881 1.881 0 0 1-.192.432c-.48.704-.945 1.6-1.392 2.688a5.77 5.77 0 0 0-.529 1.584c-.063.32-.191.56-.383.72a1.878 1.878 0 0 0-.24.432c-.065.128-.129.24-.193.336a7.59 7.59 0 0 1-.72 1.008c-.16.096-.272.256-.336.48l-.143.864c-.032.32-.128.688-.288 1.104-.129.416-.224.736-.288.96 0 .288-.192.592-.576.912l-.097.288-.623 1.44c-.64 1.472-1.088 2.56-1.344 3.264l-.097.384a.906.906 0 0 0-.047.288c0 .576-.192 1.056-.576 1.44a2.423 2.423 0 0 0-.288.576l-.049.576c0 .384.08.816.24 1.296.129.32.289.656.48 1.008.16.256.273.4.337.432.192.16.431.352.72.576.32.192.576.368.767.528.033.032.113.08.24.144.129.064.24.144.337.24.48.288.96.432 1.44.432.287 0 .543-.048.767-.144.64-.32 1.136-.48 1.489-.48.127 0 .255-.016.383-.048.129-.032.257-.048.385-.048.383-.16.72-.32 1.007-.48.32-.16.593-.288.817-.384.383-.064 1.151-.336 2.303-.816 1.153-.48 1.84-.768 2.064-.864.289-.032.529-.128.72-.288.128-.192.368-.4.72-.624.384-.224.64-.4.768-.528.512-.192.896-.64 1.152-1.344.064-.192.096-.496.096-.912a4.35 4.35 0 0 0-.047-.768l-.192-.192c-.32-.224-.769-.432-1.345-.624a2.584 2.584 0 0 0-.815-.144c-.288 0-.576.048-.864.144a1.188 1.188 0 0 0-.433.24 2.17 2.17 0 0 1-.287.192c-.449.128-1.105.336-1.969.624-.864.256-1.376.432-1.535.528a6.47 6.47 0 0 1-.672.336 5.587 5.587 0 0 0-.72.288c-.32.096-.833.144-1.537.144l-.24-.048a.571.571 0 0 1-.383-.288c-.096-.16-.128-.304-.096-.432l.335-1.056c.097-.576.273-.992.528-1.248.544-.704.944-1.424 1.2-2.16.065-.064.129-.208.193-.432a2.568 2.568 0 0 1 1.103-1.152c.64-.352 1.264-.624 1.873-.816.096-.032.255-.096.48-.192.256-.128.48-.192.672-.192.48 0 1.135-.16 1.968-.48.288-.032.592-.128.912-.288.352-.192.608-.32.767-.384.257-.192.72-.416 1.392-.672.192-.064.384-.16.576-.288.192-.128.385-.224.576-.288.609-.352 1.04-.88 1.297-1.584.16-.448.255-.72.287-.816a.534.534 0 0 0 .049-.24c0-.128.016-.224.047-.288-.064-.096-.175-.352-.335-.768-.193-.32-.369-.512-.529-.576-.224-.032-.48-.128-.767-.288a3.265 3.265 0 0 0-.672-.336h-.769c-.511.352-.816.544-.912.576-.064.032-.24.08-.528.144-.255.032-.48.128-.671.288l-.576.144c-.225.064-.4.16-.528.288l-.144.288h.047zm0 0c.127 0 .24.08.335.24.064.192.049.352-.047.48-.032.032-.064.048-.097.048-.031-.032-.047-.064-.047-.096-.064-.064-.096-.128-.096-.192a2.02 2.02 0 0 1-.049-.48zm24.607-.672v-2.4l-.048-.864v-.24c0-.288-.112-.624-.336-1.008-.16-.16-.288-.24-.384-.24l-.288.096c-.192.192-.336.4-.432.624-.544 1.024-.976 1.712-1.296 2.064l-.576.864a2.92 2.92 0 0 0-.336.432c-.128.192-.336.56-.624 1.104l-.816 1.488-.432.864c-.128.32-.336.72-.624 1.2l-.432.864-.384.96c-.032.032-.048.08-.048.144a.426.426 0 0 1-.048.192c0 .16.032.272.096.336 0 .064.032.096.096.096.096.032.208.048.336.048H96.645c.16 0 .304-.064.432-.192.576-.224 1.056-.336 1.44-.336.512 0 .88-.032 1.104-.096h1.728c.032-.032.112-.048.24-.048.096 0 .192-.048.288-.144.096-.128.16-.256.192-.384 0-.096.016-.16.048-.192v-3.408l.048-.72-.048-1.104zM85.029 67.483c0-.16.016-.288.048-.384.096-.416.16-.64.192-.672.128-.448.192-.768.192-.96.096-.384.24-.768.432-1.152.096-.128.304-.512.624-1.152 0-.032.016-.064.048-.096s.048-.08.048-.144v-.096l.144-.288a.609.609 0 0 1 .144-.288l.192-.672a5.96 5.96 0 0 0 .288-.768c.096-.256.192-.48.288-.672.192-.512.352-.896.48-1.152l.048-.576v-.912c0-.544.016-.96.048-1.248.096-.576.304-.944.624-1.104a.752.752 0 0 1 .192-.144c.096-.064.16-.096.192-.096l.24-.096a.609.609 0 0 0 .288-.144.857.857 0 0 0 .24-.24c.192-.256.288-.416.288-.48l.432-.96.384-.96c.032-.064.064-.16.096-.288.064-.16.144-.272.24-.336.48-.864.864-1.68 1.152-2.448 0-.064.032-.16.096-.288.16-.48.368-.912.624-1.296l.048-.144c.224-.224.352-.448.384-.672.256-.576.544-1.104.864-1.584.48-.64.832-1.28 1.056-1.92.064-.16.144-.352.24-.576.128-.224.208-.416.24-.576.096-.32.224-.688.384-1.104.16-.352.32-.608.48-.768.16-.16.368-.256.624-.288a.426.426 0 0 1 .192-.048.534.534 0 0 0 .24-.048h.144c.192 0 .32-.032.384-.096.16-.16.336-.272.528-.336.32-.16.56-.304.72-.432.192-.16.704-.464 1.536-.912h.048c.096-.064.24-.096.432-.096.16 0 .256.016.288.048.864.448 1.568.88 2.112 1.296.224.192.416.496.576.912.352.64.544 1.248.576 1.824l.24.912c.128.384.224.896.288 1.536v.384c.032 1.056.048 2.752.048 5.088v1.68l-.048 5.184c0 .704-.096 1.344-.288 1.92-.064.128-.096.304-.096.528-.032.16-.048.336-.048.528v.24c-.064.064-.096.16-.096.288l-.048.768c0 .224-.064.496-.192.816a6.924 6.924 0 0 0-.384 1.968c0 .544-.176 1.04-.528 1.488l-.528.864-.24.24-.096.192-.096.096a1.459 1.459 0 0 1-.864.48 5.76 5.76 0 0 1-.816.096h-.144a1.588 1.588 0 0 1-.864-.432 1.387 1.387 0 0 1-.432-.432 2.654 2.654 0 0 1-.192-.72c0-.224.016-.384.048-.48l.192-.72c.032-.192.096-.4.192-.624a4.25 4.25 0 0 0 .192-.624c0-.128.032-.288.096-.48a5.14 5.14 0 0 0 .336-1.2 8.97 8.97 0 0 0 .096-.816c.032-.032.048-.096.048-.192s.032-.192.096-.288a1.056 1.056 0 0 0-.432-.192h-.384c-.256 0-.768.032-1.536.096-.416.064-.736.176-.96.336-.192.096-.4.144-.624.144-.384.064-.944.096-1.68.096a.906.906 0 0 0-.288.048 1.064 1.064 0 0 1-.336.048h-.528c-.608 0-1.056.032-1.344.096-.224 0-.432.096-.624.288-.288.224-.528.544-.72.96a.521.521 0 0 0-.096.192c0 .064-.016.112-.048.144l-.144.144c-.064.576-.256 1.312-.576 2.208-.032.064-.08.144-.144.24-.032.064-.064.16-.096.288-.032.128-.144.352-.336.672l-.288.48-.048.096c-.096.256-.16.416-.192.48l-.048.336-.192.768c-.32.96-.512 1.52-.576 1.68-.256.608-.64.928-1.152.96h-.192c-.416 0-.752-.128-1.008-.384-.16-.064-.256-.16-.288-.288a18.66 18.66 0 0 1-.96-1.248c-.288-.288-.432-.72-.432-1.296v-.048zm40.173-33.072c-.128 0-.352.064-.672.192-.096 0-.192.048-.288.144a4.177 4.177 0 0 1-1.296.48c-.064.032-.16.064-.288.096a1.249 1.249 0 0 0-.336.192c-.48.32-.896.512-1.248.576a4.847 4.847 0 0 0-.912.432 43.183 43.183 0 0 0-2.064 1.392c-.48.32-.944.736-1.392 1.248l-.528.432c-.352.224-.704.576-1.056 1.056-.32.32-.88 1.024-1.68 2.112l-.192.336-.192.384-.48 1.104a4.373 4.373 0 0 0-.336 1.68c0 .8.112 1.488.336 2.064l.288.768c.128.384.32.752.576 1.104.64.896 1.264 1.696 1.872 2.4.32.288.512.464.576.528.416.288 1.04.688 1.872 1.2.448.32.864.608 1.248.864l1.008.672c.416.256.864.672 1.344 1.248l1.2 1.488.144.384c.064.256.096.448.096.576 0 .256-.064.464-.192.624-.32.576-.816 1.152-1.488 1.728l-.864.528c-.32.256-.736.464-1.248.624-.224.064-.432.16-.624.288a4.68 4.68 0 0 1-1.92.624c-.16.032-.48.144-.96.336l-.288.144c-.224.16-.448.24-.672.24l-1.296.144c-.416.032-.848.176-1.296.432-.192.128-.512.224-.96.288l-1.632.096c-.096.032-.32.112-.672.24-.192.096-.288.272-.288.528 0 .416.16.816.48 1.2.16.16.352.32.576.48.256.16.448.288.576.384.448.352.976.528 1.584.528.064 0 .304.016.72.048.448.032.848.144 1.2.336a.82.82 0 0 0 .672 0c.256-.16.576-.272.96-.336l1.632-.144c.512 0 1.056-.16 1.632-.48.256-.128.464-.192.624-.192l.672-.096c.352-.096.672-.208.96-.336.128-.064.256-.144.384-.24.16-.096.304-.16.432-.192a1.18 1.18 0 0 1 .432-.096c.768-.096 1.504-.4 2.208-.912a27.25 27.25 0 0 1 1.44-.96c.384-.256.816-.704 1.296-1.344.224-.352.352-.592.384-.72.224-.448.416-.96.576-1.536.096-.288.144-.64.144-1.056 0-.48-.048-.832-.144-1.056l-.432-1.2c-.128-.416-.384-.88-.768-1.392l-.96-1.2a4.522 4.522 0 0 0-.816-.72 5.353 5.353 0 0 1-.816-.672c-.512-.576-.976-.976-1.392-1.2-.256-.192-.432-.352-.528-.48a9.504 9.504 0 0 0-1.728-1.344l-2.064-1.392-.576-.432c-.384-.288-.672-.704-.864-1.248-.064-.096-.096-.336-.096-.72 0-.288.016-.464.048-.528.16-.48.4-.96.72-1.44.16-.256.672-.88 1.536-1.872l.912-1.104c.224-.256.496-.496.816-.72l1.152-.768c.256-.16.528-.32.816-.48.32-.192.656-.4 1.008-.624.704-.448 1.328-.688 1.872-.72.352-.032.784-.192 1.296-.48.32-.128.496-.192.528-.192.096 0 .24.048.432.144.576.256 1.008.4 1.296.432.704.064 1.248.096 1.632.096.288 0 .512-.032.672-.096a1.16 1.16 0 0 0 .816-.672c.192-.384.288-.832.288-1.344 0-.384-.096-.768-.288-1.152-.192-.384-.416-.64-.672-.768-.096-.032-.32-.096-.672-.192a4.962 4.962 0 0 1-.912-.48c-.352-.224-.768-.336-1.248-.336l-1.824-.096-1.824.096zm10.382 0h-.336c-.096-.032-.176-.032-.24 0-.16 0-.4.032-.72.096-.16.064-.368.208-.624.432-.224.192-.352.368-.384.528a1.808 1.808 0 0 0-.144.72c.064.768.24 1.328.528 1.68.192.256.32.464.384.624a1.7 1.7 0 0 1 .288.528c.096.192.192.448.288.768.064.224.192.56.384 1.008.096.224.208.56.336 1.008.032.32.176.768.432 1.344l.96 1.968.576 1.296c.256.896.512 1.568.768 2.016.384.704.656 1.232.816 1.584.192.448.464.848.816 1.2l.48.528.48.528c.256.352.384.704.384 1.056 0 .224-.048.432-.144.624-.384.896-.688 1.552-.912 1.968a36.17 36.17 0 0 0-.24.672 6.855 6.855 0 0 1-.48 1.344c-.192.448-.4.88-.624 1.296l-.432.912c-.256.576-.416.928-.48 1.056a9.223 9.223 0 0 0-.192.672c-.096.32-.272.768-.528 1.344-.064.16-.128.4-.192.72-.128.544-.288.992-.48 1.344l-.144.336c-.064.192-.16.496-.288.912a7.569 7.569 0 0 1-.336 1.104c-.064.192-.096.32-.096.384a2.928 2.928 0 0 0 0 1.056l.144.336a.882.882 0 0 0 .48.48l.192.048c.16 0 .288-.112.384-.336.128-.288.288-.432.48-.432.192.032.4.16.624.384l.24.24c.192.128.352.192.48.192.32 0 .56-.16.72-.48.16-.288.368-.72.624-1.296.128-.256.208-.48.24-.672a3.56 3.56 0 0 0 .144-.72c.064-.64.224-1.2.48-1.68.128-.224.224-.416.288-.576l.144-.432c.256-.448.464-1.008.624-1.68.032-.192.128-.416.288-.672.32-.736.832-1.808 1.536-3.216l.624-1.296c.192-.448.304-.784.336-1.008 0-.064.032-.192.096-.384.192-.352.304-.56.336-.624.64-.896 1.088-1.6 1.344-2.112.032-.096.08-.192.144-.288a1.07 1.07 0 0 0 .144-.384c.032-.096.176-.592.432-1.488.128-.224.24-.528.336-.912.128-.544.288-.992.48-1.344l.72-1.488 1.008-2.064c.16-.384.336-.688.528-.912.416-.48.8-1.088 1.152-1.824a9.17 9.17 0 0 1 .672-1.152c.224-.352.512-.768.864-1.248.224-.32.352-.656.384-1.008l.048-.336v-.288a1.52 1.52 0 0 0-.192-.768c-.064-.128-.24-.288-.528-.48a5.722 5.722 0 0 0-.432-.192 2.653 2.653 0 0 0-.528-.24 1.934 1.934 0 0 0-.768-.144c-.576 0-.992.128-1.248.384-.16.128-.496.48-1.008 1.056-.48.544-.816 1.024-1.008 1.44a20.687 20.687 0 0 1-1.104 2.256 36.17 36.17 0 0 0-.24.672c-.064.256-.16.528-.288.816a4.993 4.993 0 0 0-.24.528 8.33 8.33 0 0 0-.384.768 3.99 3.99 0 0 1-.528.816c-.288.32-.512.704-.672 1.152-.128.416-.208.672-.24.768a.592.592 0 0 1-.288.432.754.754 0 0 1-.528.096c-.224-.096-.4-.24-.528-.432-.128-.256-.512-1.008-1.152-2.256a6.005 6.005 0 0 1-.432-1.344l-.144-.288a1.07 1.07 0 0 0-.144-.384c-.256-.576-.4-1.024-.432-1.344a4.389 4.389 0 0 0-.192-.72c-.256-.576-.416-1.024-.48-1.344-.064-.32-.128-.544-.192-.672l-1.344-2.976a4.522 4.522 0 0 0-.72-.816c-.576-.512-1.136-.768-1.68-.768z" fill="#fff"/></svg>